<svg width="17" height="21" viewBox="0 0 17 21" fill="none" xmlns="http://www.w3.org/2000/svg">
<path d="M8.43483 0.496338C5.1832 0.496338 2.53045 3.35543 2.53045 6.85997C2.53045 9.05088 3.56793 10.9963 5.14018 12.1445C2.13148 13.5354 0 16.7536 0 20.4963H1.68697C1.68697 16.4691 4.6982 13.2236 8.43483 13.2236C12.1715 13.2236 15.1827 16.4691 15.1827 20.4963H16.8697C16.8697 16.7536 14.7382 13.5363 11.7295 12.1436C12.5319 11.5598 13.1894 10.7729 13.6443 9.85178C14.0993 8.93069 14.3379 7.90346 14.3392 6.85997C14.3392 3.35543 11.6865 0.496338 8.43483 0.496338ZM8.43483 2.31452C10.7738 2.31452 12.6522 4.33907 12.6522 6.85997C12.6522 9.38088 10.7738 11.4054 8.43483 11.4054C6.09585 11.4054 4.21741 9.38088 4.21741 6.85997C4.21741 4.33907 6.09585 2.31452 8.43483 2.31452Z" fill="#393280"/>
</svg>
