<svg width="16" height="21" viewBox="0 0 16 21" fill="none" xmlns="http://www.w3.org/2000/svg">
<path d="M7.93902 0.496338C5.96844 0.496338 4.35092 2.23018 4.35092 4.34249V5.11172H0.807321L0.762829 5.83326L0.0452101 19.6794L0 20.4963H15.8773L15.8328 19.6786L15.1152 5.83249L15.07 5.11172H11.5271V4.34249C11.5271 2.23018 9.9096 0.496338 7.93902 0.496338ZM7.93902 2.0348C8.50999 2.0348 9.05758 2.27793 9.46132 2.71071C9.86506 3.14348 10.0919 3.73045 10.0919 4.34249V5.11172H5.78616V4.34249C5.78616 3.73045 6.01298 3.14348 6.41672 2.71071C6.82046 2.27793 7.36805 2.0348 7.93902 2.0348V2.0348ZM2.15286 6.65018H4.35092V8.95788H5.78616V6.65018H10.0919V8.95788H11.5271V6.65018H13.7252L14.3531 18.9579H1.52566L2.15286 6.65018Z" fill="#393280"/>
</svg>
